<?xml version="1.0" encoding="UTF-8"?>
<svg width="16px" height="34px" viewBox="0 0 16 34" version="1.1" xmlns="http://www.w3.org/2000/svg" xmlns:xlink="http://www.w3.org/1999/xlink">
    <!-- Generator: Sketch 41.2 (35397) - http://www.bohemiancoding.com/sketch -->
    <title>arrow</title>
    <desc>Created with Sketch.</desc>
    <defs></defs>
    <g id="Card" stroke="none" stroke-width="1" fill="none" fill-rule="evenodd">
        <g id="首页接单" transform="translate(-30.000000, -528.000000)" fill="#CCCCCC">
            <g id="2订单" transform="translate(-1.000000, 354.000000)">
                <g id="店铺+地址" transform="translate(31.000000, 90.000000)">
                    <g id="arrow" transform="translate(0.000000, 84.000000)">
                        <polygon id="Disclosure-Indicator" opacity="0.400000006" transform="translate(8.000000, 5.000000) scale(-1, 1) rotate(-270.000000) translate(-8.000000, -5.000000) " points="3 -1.15384615 4.875 -3 13 5 4.875 13 3 11.1538462 9.25 5"></polygon>
                        <polygon id="Disclosure-Indicator" opacity="0.699999988" transform="translate(8.000000, 17.000000) scale(-1, 1) rotate(-270.000000) translate(-8.000000, -17.000000) " points="3 10.8461538 4.875 9 13 17 4.875 25 3 23.1538462 9.25 17"></polygon>
                        <polygon id="Disclosure-Indicator" transform="translate(8.000000, 29.000000) scale(-1, 1) rotate(-270.000000) translate(-8.000000, -29.000000) " points="3 22.8461538 4.875 21 13 29 4.875 37 3 35.1538462 9.25 29"></polygon>
                    </g>
                </g>
            </g>
        </g>
    </g>
</svg>