<?xml version="1.0" encoding="UTF-8"?>
<svg width="102px" height="102px" viewBox="0 0 102 102" version="1.1" xmlns="http://www.w3.org/2000/svg" xmlns:xlink="http://www.w3.org/1999/xlink">
    <!-- Generator: Sketch 41.2 (35397) - http://www.bohemiancoding.com/sketch -->
    <title>icon</title>
    <desc>Created with Sketch.</desc>
    <defs></defs>
    <g id="Symbols" stroke="none" stroke-width="1" fill="none" fill-rule="evenodd">
        <g id="icon/退款失败" transform="translate(1.000000, 1.000000)" stroke="#60ACF0" fill="#60ACF0">
            <path d="M99.9999383,49.9999692 C99.9999383,22.3843612 77.6155771,0 49.9999692,0 C22.3843612,0 0,22.3843612 0,49.9999692 C0,77.6158896 22.3843612,99.9999383 49.9999692,99.9999383 C61.4687121,99.9999383 72.3437054,96.1249407 81.1312,89.12807 C82.1840118,88.2883831 82.3568242,86.7543215 81.5171372,85.7018222 C80.6774503,84.6486978 79.1433887,84.4761979 78.0905769,85.3155724 C70.1127693,91.679631 60.2052754,95.1374413 49.9999692,95.1186914 C25.0812345,95.1218164 4.87812199,74.9187038 4.87812199,49.9999692 C4.87812199,25.0812345 25.0812345,4.87812199 49.9999692,4.87812199 C74.9187038,4.87812199 95.1218164,25.0812345 95.1218164,49.9999692 C95.1218164,58.5437139 92.7468178,66.7315214 88.3280705,73.8249545 C87.616196,74.9683913 87.9658833,76.4724528 89.1093201,77.1843274 C90.2527569,77.896202 91.7568184,77.5465147 92.468693,76.4030779 C97.4049399,68.4821453 100.014626,59.3330884 99.9999383,49.9999692 L99.9999383,49.9999692 Z M51.2374684,52.5909051 L35.8874779,68.2187079 C34.9443535,69.1799573 33.4002919,69.1946448 32.4390425,68.2515204 C31.4777931,67.308396 31.4631056,65.764647 32.40623,64.8033975 L47.8187205,49.1093447 L32.40623,33.4156044 C31.4631056,32.454355 31.4777931,30.9106059 32.4390425,29.967169 C33.4002919,29.0240446 34.9443535,29.0387321 35.8874779,29.9999815 L51.2374684,45.6312219 L66.5843339,29.9999815 C67.5283959,29.0387321 69.0730824,29.0246696 70.0343318,29.9687315 C70.9958937,30.9127934 71.0096437,32.45748 70.0655818,33.4187294 L54.6530913,49.1124697 L70.0655818,64.80621 C71.0090187,65.767772 70.9943312,67.311521 70.0324568,68.2549579 C69.0712074,69.1977698 67.5274584,69.1830823 66.5843339,68.2218329 L51.2374684,52.5937176 L51.2374684,52.5909051 Z" id="icon"></path>
        </g>
    </g>
</svg>